#!OML:ASF H:\Martial Arts Walks\Project 1\Capture day 1\Session 1\male.ASF
:FULLY-SPECIFIED
:DEGREES
1193
root -2.35448 13.887 25.0263 6.41115 12.5409 0.911921
lowerback 10.1142 -3.89782 -10.1731
upperback -1.48638 -6.31582 2.60354
thorax -5.87419 -2.71897 9.41412
lowerneck 9.93338 -18.0326 -17.7994
upperneck 5.59366 -26.7184 17.0183
head 4.79066 -13.675 6.53746
rclavicle 6.56176e-014 1.04362e-015
rhumerus -33.9813 14.627 -74.0536
rradius 41.7956
rwrist 1.51843
rhand -12.3612 -38.5972
rfingers 7.12502
rthumb 13.7089 -68.1257
lclavicle 6.56176e-014 1.04362e-015
lhumerus -27.7696 -8.35246 88.3242
lradius 39.5757
lwrist -7.7926
lhand -25.7403 21.7369
lfingers 7.12502
lthumb 0.796613 51.7151
rfemur -63.0433 -11.9925 14.8538
rtibia 71.7969
rfoot -12.4754 14.7626
rtoes 0.696718
lfemur 14.0588 2.20991 -13.9614
ltibia 33.5093
lfoot -32.7184 38.0417
ltoes -21.3793
1194
root -2.35508 13.8874 25.0259 6.40055 12.4924 0.913191
lowerback 10.1014 -3.91122 -10.1782
upperback -1.48094 -6.33183 2.61969
thorax -5.85492 -2.72819 9.43445
lowerneck 9.94098 -18.038 -17.8143
upperneck 5.59357 -26.7287 17.0222
head 4.7938 -13.6806 6.53922
rclavicle -1.08431e-013 4.96962e-015
rhumerus -33.9584 14.6187 -74.0324
rradius 41.7245
rwrist 1.53229
rhand -12.3156 -38.6534
rfingers 7.12502
rthumb 13.7528 -68.1789
lclavicle -1.08431e-013 4.96962e-015
lhumerus -27.7224 -8.3642 88.3249
lradius 39.5501
lwrist -7.83148
lhand -25.7566 21.6883
lfingers 7.12502
lthumb 0.780857 51.6666
rfemur -63.045 -11.9852 14.8673
rtibia 71.7946
rfoot -12.4476 14.8312
rtoes 0.908051
lfemur 14.0849 2.22167 -13.974
ltibia 33.5051
lfoot -32.9037 37.9275
ltoes -21.2204
1195
root -2.35545 13.8865 25.0248 6.38397 12.4661 0.89809
lowerback 10.1047 -3.92025 -10.1331
upperback -1.47873 -6.33828 2.62148
thorax -5.85718 -2.73286 9.41162
lowerneck 9.94685 -18.0533 -17.8045
upperneck 5.59539 -26.752 17.0414
head 4.79904 -13.6921 6.54063
rclavicle 3.87723e-014 -1.12065e-014
rhumerus -33.9459 14.5538 -74.0182
rradius 41.626
rwrist 1.52596
rhand -12.5922 -38.4256
rfingers 7.12502
rthumb 13.4863 -67.9689
lclavicle 3.87723e-014 -1.12065e-014
lhumerus -27.6486 -8.43118 88.3155
lradius 39.473
lwrist -7.88177
lhand -25.7847 21.5568
lfingers 7.12502
lthumb 0.753666 51.5352
rfemur -63.0439 -12.0054 14.9048
rtibia 71.7957
rfoot -12.4669 14.8587
rtoes 0.843805
lfemur 14.111 2.24074 -13.9686
ltibia 33.4846
lfoot -32.781 38.0233
ltoes -21.3245
1196
root -2.3542 13.8841 25.0219 6.43091 12.3943 0.923757
lowerback 10.0014 -3.86678 -10.0395
upperback -1.54096 -6.24976 2.58575
thorax -5.89954 -2.68734 9.30397
lowerneck 10.3524 -18.0501 -17.9528
upperneck 5.41198 -26.812 17.2214
head 4.73631 -13.7468 6.64834
rclavicle -6.02877e-015 1.49337e-014
rhumerus -34.17 14.338 -73.9467
rradius 41.6392
rwrist 1.51381
rhand -12.5387 -38.5608
rfingers 7.12502
rthumb 13.5378 -68.1008
lclavicle -6.02877e-015 1.49337e-014
lhumerus -27.6969 -8.68853 88.4224
lradius 39.4311
lwrist -7.90341
lhand -25.7816 21.5138
lfingers 7.12502
lthumb 0.756716 51.4922
rfemur -63.1323 -12.0162 14.904
rtibia 71.7977
rfoot -12.4516 14.9559
rtoes 0.977322
lfemur 14.0892 2.28213 -14.0321
ltibia 33.4652
lfoot -32.7954 38.0374
ltoes -21.2903
1197
root -2.35646 13.884 25.0237 6.35325 12.4169 0.959169
lowerback 10.1077 -3.93514 -10.1452
upperback -1.45133 -6.35917 2.61169
thorax -5.82432 -2.74643 9.4081
lowerneck 9.91918 -18.0957 -17.7526
upperneck 5.56597 -26.7977 17.0407
head 4.79535 -13.7123 6.52611
rclavicle -4.84786e-014 -1.92573e-014
rhumerus -33.9805 14.437 -73.9682
rradius 41.6231
rwrist 1.52925
rhand -12.4058 -38.5715
rfingers 7.12502
rthumb 13.6659 -68.1028
lclavicle -4.84786e-014 -1.92573e-014
lhumerus -27.5194 -8.50317 88.302
lradius 39.4374
lwrist -7.92423
lhand -25.7345 21.4883
lfingers 7.12502
lthumb 0.802207 51.4665
rfemur -63.0332 -12.066 14.8721
rtibia 71.8114
rfoot -12.484 14.9735
rtoes 1.03858
lfemur 14.1916 2.25444 -14.0468
ltibia 33.443
lfoot -32.7614 38.0466
ltoes -21.3053
1198
root -2.35678 13.883 25.023 6.34558 12.431 1.02932
lowerback 10.1438 -3.96592 -10.2032
upperback -1.45503 -6.4118 2.60681
thorax -5.8314 -2.76978 9.44506
lowerneck 9.88861 -18.0952 -17.7382
upperneck 5.58625 -26.7919 17.017
head 4.79993 -13.7074 6.51479
rclavicle 3.97445e-014 3.45388e-014
rhumerus -34.0447 14.5275 -73.9968
rradius 41.6339
rwrist 1.41037
rhand -12.0675 -38.8585
rfingers 7.12502
rthumb 13.992 -68.3677
lclavicle 3.97445e-014 3.45388e-014
lhumerus -27.4933 -8.50098 88.2809
lradius 39.4804
lwrist -7.86647
lhand -25.6547 21.5393
lfingers 7.12502
lthumb 0.87923 51.5172
rfemur -63.0132 -12.1488 14.8132
rtibia 71.8257
rfoot -12.4834 15.037
rtoes 1.13327
lfemur 14.2205 2.24053 -14.115
ltibia 33.4263
lfoot -32.7752 38.0292
ltoes -21.3098
1199
root -2.35844 13.8828 25.0212 6.35119 12.3916 0.995922
lowerback 10.1388 -3.97118 -10.1781
upperback -1.45605 -6.41352 2.63551
thorax -5.82847 -2.77135 9.46194
lowerneck 9.9067 -18.0806 -17.7841
upperneck 5.57011 -26.7816 17.0642
head 4.8033 -13.7041 6.53683
rclavicle 5.03422e-014 2.58917e-014
rhumerus -34.0551 14.5214 -73.9678
rradius 41.5867
rwrist 1.40383
rhand -12.0167 -38.8606
rfingers 7.12502
rthumb 14.0409 -68.3664
lclavicle 5.03422e-014 2.58917e-014
lhumerus -27.4275 -8.48619 88.2805
lradius 39.4579
lwrist -7.91829
lhand -25.7091 21.5905
lfingers 7.12502
lthumb 0.826661 51.5686
rfemur -63.0473 -12.1277 14.8736
rtibia 71.8211
rfoot -12.4605 15.073
rtoes 1.28867
lfemur 14.2135 2.25495 -14.0864
ltibia 33.4197
lfoot -32.8184 37.9949
ltoes -21.3136
1200
root -2.36114 13.881 25.0201 6.34752 12.3569 1.03421
lowerback 10.1085 -3.93959 -10.1868
upperback -1.47473 -6.37141 2.61596
thorax -5.84264 -2.74868 9.4394
lowerneck 10.0569 -18.1104 -17.8148
upperneck 5.50868 -26.8424 17.1093
head 4.7825 -13.7427 6.56191
rclavicle -7.1095e-014 8.39865e-015
rhumerus -34.2343 14.4454 -73.9447
rradius 41.6209
rwrist 1.3731
rhand -11.9875 -38.912
rfingers 7.12502
rthumb 14.069 -68.4158
lclavicle -7.1095e-014 8.39865e-015
lhumerus -27.4488 -8.64657 88.3227
lradius 39.4797
lwrist -7.93117
lhand -25.7195 21.4571
lfingers 7.12502
lthumb 0.816667 51.4352
rfemur -63.0679 -12.1122 14.8456
rtibia 71.8269
rfoot -12.426 15.1079
rtoes 1.47865
lfemur 14.2173 2.27778 -14.1218
ltibia 33.4327
lfoot -32.7729 38.0253
ltoes -21.3817
1201
root -2.36274 13.881 25.0191 6.33992 12.3127 1.01919
lowerback 10.1243 -3.94007 -10.1768
upperback -1.49151 -6.3723 2.6325
thorax -5.86867 -2.74663 9.45492
lowerneck 9.91529 -18.1523 -17.8499
upperneck 5.65837 -26.8968 17.0392
head 4.8545 -13.7607 6.51567
rclavicle -9.11676e-014 1.83503e-014
rhumerus -34.2886 14.4578 -73.9334
rradius 41.5646
rwrist 1.41418
rhand -12.1779 -38.7653
rfingers 7.12502
rthumb 13.8856 -68.2817
lclavicle -9.11676e-014 1.83503e-014
lhumerus -27.4271 -8.66315 88.3211
lradius 39.4826
lwrist -7.94879
lhand -25.7788 21.2807
lfingers 7.12502
lthumb 0.759399 51.2591
rfemur -63.0723 -12.0731 14.8665
rtibia 71.8055
rfoot -12.3724 15.1558
rtoes 1.6826
lfemur 14.197 2.30626 -14.1073
ltibia 33.4962
lfoot -32.845 38.0031
ltoes -21.3015
1202
root -2.36414 13.8796 25.017 6.36319 12.292 1.032
lowerback 10.1496 -3.97648 -10.2192
upperback -1.46214 -6.42604 2.65615
thorax -5.83176 -2.77537 9.51072
lowerneck 9.54998 -18.2107 -17.7497
upperneck 5.81489 -26.9253 16.9111
head 4.93232 -13.7522 6.41881
rclavicle 7.45443e-015 -6.79595e-015
rhumerus -34.1918 14.5058 -73.9393
rradius 41.5026
rwrist 1.47192
rhand -12.3174 -38.6635
rfingers 7.12502
rthumb 13.7512 -68.1891
lclavicle 7.45443e-015 -6.79595e-015
lhumerus -27.2786 -8.58407 88.2493
lradius 39.4905
lwrist -7.90622
lhand -25.7341 21.3027
lfingers 7.12502
lthumb 0.802579 51.2809
rfemur -63.1208 -12.078 14.8755
rtibia 71.8056
rfoot -12.314 15.1958
rtoes 1.78482
lfemur 14.1594 2.3166 -14.1247
ltibia 33.5222
lfoot -32.8112 38.0545
ltoes -21.3263
1203
root -2.36511 13.879 25.0128 6.43649 12.1801 0.989181
lowerback 10.0913 -3.95459 -10.1578
upperback -1.49798 -6.3841 2.66872
thorax -5.85196 -2.75374 9.48167
lowerneck 9.62329 -18.2308 -17.7635
upperneck 5.7486 -26.9615 16.9656
head 4.91668 -13.7745 6.44026
rclavicle 2.24277e-014 -5.34855e-015
rhumerus -34.1948 14.4854 -73.9249
rradius 41.3953
rwrist 1.47828
rhand -12.6262 -38.5
rfingers 7.12502
rthumb 13.4535 -68.0455
lclavicle 2.24277e-014 -5.34855e-015
lhumerus -27.2404 -8.624 88.2423
lradius 39.5156
lwrist -7.89793
lhand -25.7545 21.3869
lfingers 7.12502
lthumb 0.782822 51.3652
rfemur -63.2568 -11.9746 14.9527
rtibia 71.7849
rfoot -12.2944 15.1938
rtoes 1.5895
lfemur 14.0347 2.41171 -14.1086
ltibia 33.586
lfoot -32.8244 38.0755
ltoes -21.3505
